HIERARCHY
ROOT Hips
{
    OFFSET 0.0 0.0 0.0
    CHANNELS 6 Xposition Yposition Zposition Zrotation Xrotation Yrotation
    JOINT Spine
    {
        OFFSET 0.0 24.915946094218018 0.0
        CHANNELS 3 Zrotation Xrotation Yrotation
        JOINT LeftUpperArm
        {
            OFFSET 16.81604941412623 25.104272930016975 0.0
            CHANNELS 3 Zrotation Xrotation Yrotation
            JOINT LeftLowerArm
            {
                OFFSET 31.610997681180987 0.0 0.0
                CHANNELS 3 Zrotation Xrotation Yrotation
                End Site
                {
                OFFSET 6.056449497113557 0.0 0.0
                }
            }
        }
        JOINT RightUpperArm
        {
            OFFSET -16.81604941412623 25.104272930016975 0.0
            CHANNELS 3 Zrotation Xrotation Yrotation
            JOINT RightLowerArm
            {
                OFFSET -31.610997681180987 0.0 0.0
                CHANNELS 3 Zrotation Xrotation Yrotation
                End Site
                {
                OFFSET 6.056449497113557 0.0 0.0
                }
            }
        }
    }
    JOINT LeftUpperLeg
    {
        OFFSET 9.298931008990625 0.0 0.0
        CHANNELS 3 Zrotation Xrotation Yrotation
    }
    JOINT RightUpperLeg
    {
        OFFSET -9.298931008990625 0.0 0.0
        CHANNELS 3 Zrotation Xrotation Yrotation
    }
}
MOTION
Frames: 2
Frame Time: 0.03333333333333333
-0.13673777226311123 -0.19259780941782867 -0.08224393816044466 -3.0853157382844847 -14.540355800773561 -14.26141924862161 -0.0 -0.0 -0.0 173.18947835402523 -28.138548072208707 167.0598213579965 -174.86930872708984 -37.53890256108195 180.0 22.491668452068986 4.791182176157641 174.6611452340841 21.73386701575425 -83.15472889077905 -7.63333123551244e-14 -151.81219627960252 66.03370480301719 66.55035083173081 123.32982567497557 65.61701902997079 155.49998851647604
-0.13983023739100225 -0.19012023597572159 -0.08198114798489492 -3.0020360244038886 -14.45331984814746 -14.289038887502985 -0.0 -0.0 -0.0 170.83375301184273 -34.28349396505535 165.53874070856614 -174.73423865310806 -29.603334758538086 180.0 22.635546284566885 4.554010619750265 174.60418091931004 21.984991845466467 -83.0975849512192 -5.088887490341627e-14 -156.05483331672184 69.85606510728196 69.98538099748569 118.86874994967127 61.33689642398292 159.49032986135583
